<svg width="50" height="50" viewBox="0 0 50 50" fill="none" xmlns="http://www.w3.org/2000/svg">
<g clip-path="url(#clip0_2_7436)">
<rect width="5" height="12" rx="2.5" transform="matrix(-0.707107 -0.707107 -0.707107 0.707107 22 32)" fill="#4633B9"/>
<rect width="5" height="12" rx="2.5" transform="matrix(-0.707107 -0.707107 -0.707107 0.707107 22 32)" fill="#1767F9"/>
<rect width="5" height="12" rx="2.5" transform="matrix(-0.707107 -0.707107 -0.707107 0.707107 22 32)" fill="#4BB1BC"/>
<rect width="5" height="12" rx="2.5" transform="matrix(-0.707107 -0.707107 -0.707107 0.707107 22 32)" fill="url(#paint0_radial_2_7436)"/>
<rect width="5" height="12" rx="2.5" transform="matrix(-0.707107 -0.707107 -0.707107 0.707107 22 32)" fill="url(#paint1_radial_2_7436)" fill-opacity="0.5"/>
<rect width="5" height="12" rx="2.5" transform="matrix(-0.707107 -0.707107 -0.707107 0.707107 22 32)" fill="url(#paint2_linear_2_7436)"/>
<path fill-rule="evenodd" clip-rule="evenodd" d="M12.6359 34.6359C11.861 33.861 10.7845 33.4664 9.69239 33.5568C8.81304 33.6296 7.98803 34.012 7.36411 34.6359L1.51472 40.4853C-0.437902 42.4379 -0.437903 45.6037 1.51472 47.5564C3.46734 49.509 6.63317 49.509 8.58579 47.5563L14.4352 41.707C15.0591 41.083 15.4415 40.258 15.5143 39.3787C15.6047 38.2866 15.21 37.21 14.4352 36.4352L12.6359 34.6359Z" fill="#4633B9"/>
<path fill-rule="evenodd" clip-rule="evenodd" d="M12.6359 34.6359C11.861 33.861 10.7845 33.4664 9.69239 33.5568C8.81304 33.6296 7.98803 34.012 7.36411 34.6359L1.51472 40.4853C-0.437902 42.4379 -0.437903 45.6037 1.51472 47.5564C3.46734 49.509 6.63317 49.509 8.58579 47.5563L14.4352 41.707C15.0591 41.083 15.4415 40.258 15.5143 39.3787C15.6047 38.2866 15.21 37.21 14.4352 36.4352L12.6359 34.6359Z" fill="#1767F9"/>
<path fill-rule="evenodd" clip-rule="evenodd" d="M12.6359 34.6359C11.861 33.861 10.7845 33.4664 9.69239 33.5568C8.81304 33.6296 7.98803 34.012 7.36411 34.6359L1.51472 40.4853C-0.437902 42.4379 -0.437903 45.6037 1.51472 47.5564C3.46734 49.509 6.63317 49.509 8.58579 47.5563L14.4352 41.707C15.0591 41.083 15.4415 40.258 15.5143 39.3787C15.6047 38.2866 15.21 37.21 14.4352 36.4352L12.6359 34.6359Z" fill="#4BB1BC"/>
<path fill-rule="evenodd" clip-rule="evenodd" d="M12.6359 34.6359C11.861 33.861 10.7845 33.4664 9.69239 33.5568C8.81304 33.6296 7.98803 34.012 7.36411 34.6359L1.51472 40.4853C-0.437902 42.4379 -0.437903 45.6037 1.51472 47.5564C3.46734 49.509 6.63317 49.509 8.58579 47.5563L14.4352 41.707C15.0591 41.083 15.4415 40.258 15.5143 39.3787C15.6047 38.2866 15.21 37.21 14.4352 36.4352L12.6359 34.6359Z" fill="url(#paint3_radial_2_7436)"/>
<path fill-rule="evenodd" clip-rule="evenodd" d="M12.6359 34.6359C11.861 33.861 10.7845 33.4664 9.69239 33.5568C8.81304 33.6296 7.98803 34.012 7.36411 34.6359L1.51472 40.4853C-0.437902 42.4379 -0.437903 45.6037 1.51472 47.5564C3.46734 49.509 6.63317 49.509 8.58579 47.5563L14.4352 41.707C15.0591 41.083 15.4415 40.258 15.5143 39.3787C15.6047 38.2866 15.21 37.21 14.4352 36.4352L12.6359 34.6359Z" fill="url(#paint4_radial_2_7436)" fill-opacity="0.5"/>
<path fill-rule="evenodd" clip-rule="evenodd" d="M12.6359 34.6359C11.861 33.861 10.7845 33.4664 9.69239 33.5568C8.81304 33.6296 7.98803 34.012 7.36411 34.6359L1.51472 40.4853C-0.437902 42.4379 -0.437903 45.6037 1.51472 47.5564C3.46734 49.509 6.63317 49.509 8.58579 47.5563L14.4352 41.707C15.0591 41.083 15.4415 40.258 15.5143 39.3787C15.6047 38.2866 15.21 37.21 14.4352 36.4352L12.6359 34.6359Z" fill="url(#paint5_linear_2_7436)"/>
<path d="M33.7829 3.42623C31.293 2.85792 28.707 2.85792 26.2171 3.42623C23.7273 3.99453 21.3974 5.11652 19.4007 6.70887C17.4039 8.30121 15.7916 10.323 14.6835 12.624C13.5754 14.925 13 17.4461 13 20C13 22.5539 13.5754 25.075 14.6835 27.376C15.7916 29.677 17.4039 31.6988 19.4007 33.2911C21.3974 34.8835 23.7273 36.0055 26.2171 36.5738C28.707 37.1421 31.293 37.1421 33.7829 36.5738C36.2727 36.0055 38.6026 34.8835 40.5993 33.2911C42.5961 31.6988 44.2084 29.677 45.3165 27.376C46.4246 25.075 47 22.5539 47 20C47 17.4461 46.4246 14.925 45.3165 12.624C44.2084 10.323 42.5961 8.30121 40.5993 6.70886C38.6026 5.11652 36.2727 3.99453 33.7829 3.42623Z" fill="#4633B9"/>
<path d="M33.7829 3.42623C31.293 2.85792 28.707 2.85792 26.2171 3.42623C23.7273 3.99453 21.3974 5.11652 19.4007 6.70887C17.4039 8.30121 15.7916 10.323 14.6835 12.624C13.5754 14.925 13 17.4461 13 20C13 22.5539 13.5754 25.075 14.6835 27.376C15.7916 29.677 17.4039 31.6988 19.4007 33.2911C21.3974 34.8835 23.7273 36.0055 26.2171 36.5738C28.707 37.1421 31.293 37.1421 33.7829 36.5738C36.2727 36.0055 38.6026 34.8835 40.5993 33.2911C42.5961 31.6988 44.2084 29.677 45.3165 27.376C46.4246 25.075 47 22.5539 47 20C47 17.4461 46.4246 14.925 45.3165 12.624C44.2084 10.323 42.5961 8.30121 40.5993 6.70886C38.6026 5.11652 36.2727 3.99453 33.7829 3.42623Z" fill="#1767F9"/>
<path d="M33.7829 3.42623C31.293 2.85792 28.707 2.85792 26.2171 3.42623C23.7273 3.99453 21.3974 5.11652 19.4007 6.70887C17.4039 8.30121 15.7916 10.323 14.6835 12.624C13.5754 14.925 13 17.4461 13 20C13 22.5539 13.5754 25.075 14.6835 27.376C15.7916 29.677 17.4039 31.6988 19.4007 33.2911C21.3974 34.8835 23.7273 36.0055 26.2171 36.5738C28.707 37.1421 31.293 37.1421 33.7829 36.5738C36.2727 36.0055 38.6026 34.8835 40.5993 33.2911C42.5961 31.6988 44.2084 29.677 45.3165 27.376C46.4246 25.075 47 22.5539 47 20C47 17.4461 46.4246 14.925 45.3165 12.624C44.2084 10.323 42.5961 8.30121 40.5993 6.70886C38.6026 5.11652 36.2727 3.99453 33.7829 3.42623Z" fill="#4BB1BC"/>
<path d="M33.7829 3.42623C31.293 2.85792 28.707 2.85792 26.2171 3.42623C23.7273 3.99453 21.3974 5.11652 19.4007 6.70887C17.4039 8.30121 15.7916 10.323 14.6835 12.624C13.5754 14.925 13 17.4461 13 20C13 22.5539 13.5754 25.075 14.6835 27.376C15.7916 29.677 17.4039 31.6988 19.4007 33.2911C21.3974 34.8835 23.7273 36.0055 26.2171 36.5738C28.707 37.1421 31.293 37.1421 33.7829 36.5738C36.2727 36.0055 38.6026 34.8835 40.5993 33.2911C42.5961 31.6988 44.2084 29.677 45.3165 27.376C46.4246 25.075 47 22.5539 47 20C47 17.4461 46.4246 14.925 45.3165 12.624C44.2084 10.323 42.5961 8.30121 40.5993 6.70886C38.6026 5.11652 36.2727 3.99453 33.7829 3.42623Z" fill="url(#paint6_radial_2_7436)"/>
<path d="M33.7829 3.42623C31.293 2.85792 28.707 2.85792 26.2171 3.42623C23.7273 3.99453 21.3974 5.11652 19.4007 6.70887C17.4039 8.30121 15.7916 10.323 14.6835 12.624C13.5754 14.925 13 17.4461 13 20C13 22.5539 13.5754 25.075 14.6835 27.376C15.7916 29.677 17.4039 31.6988 19.4007 33.2911C21.3974 34.8835 23.7273 36.0055 26.2171 36.5738C28.707 37.1421 31.293 37.1421 33.7829 36.5738C36.2727 36.0055 38.6026 34.8835 40.5993 33.2911C42.5961 31.6988 44.2084 29.677 45.3165 27.376C46.4246 25.075 47 22.5539 47 20C47 17.4461 46.4246 14.925 45.3165 12.624C44.2084 10.323 42.5961 8.30121 40.5993 6.70886C38.6026 5.11652 36.2727 3.99453 33.7829 3.42623Z" fill="url(#paint7_radial_2_7436)" fill-opacity="0.5"/>
<path d="M33.7829 3.42623C31.293 2.85792 28.707 2.85792 26.2171 3.42623C23.7273 3.99453 21.3974 5.11652 19.4007 6.70887C17.4039 8.30121 15.7916 10.323 14.6835 12.624C13.5754 14.925 13 17.4461 13 20C13 22.5539 13.5754 25.075 14.6835 27.376C15.7916 29.677 17.4039 31.6988 19.4007 33.2911C21.3974 34.8835 23.7273 36.0055 26.2171 36.5738C28.707 37.1421 31.293 37.1421 33.7829 36.5738C36.2727 36.0055 38.6026 34.8835 40.5993 33.2911C42.5961 31.6988 44.2084 29.677 45.3165 27.376C46.4246 25.075 47 22.5539 47 20C47 17.4461 46.4246 14.925 45.3165 12.624C44.2084 10.323 42.5961 8.30121 40.5993 6.70886C38.6026 5.11652 36.2727 3.99453 33.7829 3.42623Z" fill="url(#paint8_radial_2_7436)"/>
<path d="M32.9477 8.77579C31.3366 8.40807 29.6634 8.40807 28.0523 8.77579C26.4412 9.14352 24.9336 9.86951 23.6416 10.8999C22.3496 11.9302 21.3064 13.2384 20.5893 14.7273C19.8723 16.2162 19.5 17.8475 19.5 19.5C19.5 21.1525 19.8723 22.7838 20.5893 24.2727C21.3064 25.7616 22.3496 27.0698 23.6416 28.1001C24.9336 29.1305 26.4412 29.8565 28.0523 30.2242C29.6634 30.5919 31.3366 30.5919 32.9477 30.2242C34.5588 29.8565 36.0664 29.1305 37.3584 28.1001C38.6504 27.0698 39.6936 25.7616 40.4107 24.2727C41.1277 22.7838 41.5 21.1525 41.5 19.5C41.5 17.8475 41.1277 16.2162 40.4107 14.7273C39.6936 13.2384 38.6504 11.9302 37.3584 10.8999C36.0664 9.86951 34.5588 9.14352 32.9477 8.77579Z" stroke="#4633B9" stroke-width="3"/>
<path d="M32.9477 8.77579C31.3366 8.40807 29.6634 8.40807 28.0523 8.77579C26.4412 9.14352 24.9336 9.86951 23.6416 10.8999C22.3496 11.9302 21.3064 13.2384 20.5893 14.7273C19.8723 16.2162 19.5 17.8475 19.5 19.5C19.5 21.1525 19.8723 22.7838 20.5893 24.2727C21.3064 25.7616 22.3496 27.0698 23.6416 28.1001C24.9336 29.1305 26.4412 29.8565 28.0523 30.2242C29.6634 30.5919 31.3366 30.5919 32.9477 30.2242C34.5588 29.8565 36.0664 29.1305 37.3584 28.1001C38.6504 27.0698 39.6936 25.7616 40.4107 24.2727C41.1277 22.7838 41.5 21.1525 41.5 19.5C41.5 17.8475 41.1277 16.2162 40.4107 14.7273C39.6936 13.2384 38.6504 11.9302 37.3584 10.8999C36.0664 9.86951 34.5588 9.14352 32.9477 8.77579Z" stroke="#1767F9" stroke-width="3"/>
<path d="M32.9477 8.77579C31.3366 8.40807 29.6634 8.40807 28.0523 8.77579C26.4412 9.14352 24.9336 9.86951 23.6416 10.8999C22.3496 11.9302 21.3064 13.2384 20.5893 14.7273C19.8723 16.2162 19.5 17.8475 19.5 19.5C19.5 21.1525 19.8723 22.7838 20.5893 24.2727C21.3064 25.7616 22.3496 27.0698 23.6416 28.1001C24.9336 29.1305 26.4412 29.8565 28.0523 30.2242C29.6634 30.5919 31.3366 30.5919 32.9477 30.2242C34.5588 29.8565 36.0664 29.1305 37.3584 28.1001C38.6504 27.0698 39.6936 25.7616 40.4107 24.2727C41.1277 22.7838 41.5 21.1525 41.5 19.5C41.5 17.8475 41.1277 16.2162 40.4107 14.7273C39.6936 13.2384 38.6504 11.9302 37.3584 10.8999C36.0664 9.86951 34.5588 9.14352 32.9477 8.77579Z" stroke="#4BB1BC" stroke-width="3"/>
<path d="M32.9477 8.77579C31.3366 8.40807 29.6634 8.40807 28.0523 8.77579C26.4412 9.14352 24.9336 9.86951 23.6416 10.8999C22.3496 11.9302 21.3064 13.2384 20.5893 14.7273C19.8723 16.2162 19.5 17.8475 19.5 19.5C19.5 21.1525 19.8723 22.7838 20.5893 24.2727C21.3064 25.7616 22.3496 27.0698 23.6416 28.1001C24.9336 29.1305 26.4412 29.8565 28.0523 30.2242C29.6634 30.5919 31.3366 30.5919 32.9477 30.2242C34.5588 29.8565 36.0664 29.1305 37.3584 28.1001C38.6504 27.0698 39.6936 25.7616 40.4107 24.2727C41.1277 22.7838 41.5 21.1525 41.5 19.5C41.5 17.8475 41.1277 16.2162 40.4107 14.7273C39.6936 13.2384 38.6504 11.9302 37.3584 10.8999C36.0664 9.86951 34.5588 9.14352 32.9477 8.77579Z" stroke="url(#paint9_radial_2_7436)" stroke-width="3"/>
<path d="M32.9477 8.77579C31.3366 8.40807 29.6634 8.40807 28.0523 8.77579C26.4412 9.14352 24.9336 9.86951 23.6416 10.8999C22.3496 11.9302 21.3064 13.2384 20.5893 14.7273C19.8723 16.2162 19.5 17.8475 19.5 19.5C19.5 21.1525 19.8723 22.7838 20.5893 24.2727C21.3064 25.7616 22.3496 27.0698 23.6416 28.1001C24.9336 29.1305 26.4412 29.8565 28.0523 30.2242C29.6634 30.5919 31.3366 30.5919 32.9477 30.2242C34.5588 29.8565 36.0664 29.1305 37.3584 28.1001C38.6504 27.0698 39.6936 25.7616 40.4107 24.2727C41.1277 22.7838 41.5 21.1525 41.5 19.5C41.5 17.8475 41.1277 16.2162 40.4107 14.7273C39.6936 13.2384 38.6504 11.9302 37.3584 10.8999C36.0664 9.86951 34.5588 9.14352 32.9477 8.77579Z" stroke="url(#paint10_radial_2_7436)" stroke-opacity="0.5" stroke-width="3"/>
<path d="M32.9477 8.77579C31.3366 8.40807 29.6634 8.40807 28.0523 8.77579C26.4412 9.14352 24.9336 9.86951 23.6416 10.8999C22.3496 11.9302 21.3064 13.2384 20.5893 14.7273C19.8723 16.2162 19.5 17.8475 19.5 19.5C19.5 21.1525 19.8723 22.7838 20.5893 24.2727C21.3064 25.7616 22.3496 27.0698 23.6416 28.1001C24.9336 29.1305 26.4412 29.8565 28.0523 30.2242C29.6634 30.5919 31.3366 30.5919 32.9477 30.2242C34.5588 29.8565 36.0664 29.1305 37.3584 28.1001C38.6504 27.0698 39.6936 25.7616 40.4107 24.2727C41.1277 22.7838 41.5 21.1525 41.5 19.5C41.5 17.8475 41.1277 16.2162 40.4107 14.7273C39.6936 13.2384 38.6504 11.9302 37.3584 10.8999C36.0664 9.86951 34.5588 9.14352 32.9477 8.77579Z" stroke="url(#paint11_radial_2_7436)" stroke-width="3"/>
<path d="M32.7815 7.8134C30.9507 7.39553 29.0493 7.39553 27.2185 7.8134C25.3877 8.23127 23.6746 9.05627 22.2064 10.2271C20.7382 11.3979 19.5527 12.8845 18.7379 14.5765C17.9231 16.2684 17.5 18.1221 17.5 20C17.5 21.8779 17.9231 23.7316 18.7379 25.4235C19.5527 27.1155 20.7382 28.6021 22.2064 29.7729C23.6746 30.9437 25.3877 31.7687 27.2185 32.1866C29.0493 32.6045 30.9507 32.6045 32.7815 32.1866C34.6123 31.7687 36.3254 30.9437 37.7936 29.7729C39.2618 28.6021 40.4473 27.1155 41.2621 25.4235C42.0769 23.7316 42.5 21.8779 42.5 20C42.5 18.1221 42.0769 16.2684 41.2621 14.5765C40.4473 12.8845 39.2618 11.3979 37.7936 10.2271C36.3254 9.05627 34.6123 8.23127 32.7815 7.8134Z" fill="#4633B9"/>
<path d="M32.7815 7.8134C30.9507 7.39553 29.0493 7.39553 27.2185 7.8134C25.3877 8.23127 23.6746 9.05627 22.2064 10.2271C20.7382 11.3979 19.5527 12.8845 18.7379 14.5765C17.9231 16.2684 17.5 18.1221 17.5 20C17.5 21.8779 17.9231 23.7316 18.7379 25.4235C19.5527 27.1155 20.7382 28.6021 22.2064 29.7729C23.6746 30.9437 25.3877 31.7687 27.2185 32.1866C29.0493 32.6045 30.9507 32.6045 32.7815 32.1866C34.6123 31.7687 36.3254 30.9437 37.7936 29.7729C39.2618 28.6021 40.4473 27.1155 41.2621 25.4235C42.0769 23.7316 42.5 21.8779 42.5 20C42.5 18.1221 42.0769 16.2684 41.2621 14.5765C40.4473 12.8845 39.2618 11.3979 37.7936 10.2271C36.3254 9.05627 34.6123 8.23127 32.7815 7.8134Z" fill="#1767F9"/>
<path d="M32.7815 7.8134C30.9507 7.39553 29.0493 7.39553 27.2185 7.8134C25.3877 8.23127 23.6746 9.05627 22.2064 10.2271C20.7382 11.3979 19.5527 12.8845 18.7379 14.5765C17.9231 16.2684 17.5 18.1221 17.5 20C17.5 21.8779 17.9231 23.7316 18.7379 25.4235C19.5527 27.1155 20.7382 28.6021 22.2064 29.7729C23.6746 30.9437 25.3877 31.7687 27.2185 32.1866C29.0493 32.6045 30.9507 32.6045 32.7815 32.1866C34.6123 31.7687 36.3254 30.9437 37.7936 29.7729C39.2618 28.6021 40.4473 27.1155 41.2621 25.4235C42.0769 23.7316 42.5 21.8779 42.5 20C42.5 18.1221 42.0769 16.2684 41.2621 14.5765C40.4473 12.8845 39.2618 11.3979 37.7936 10.2271C36.3254 9.05627 34.6123 8.23127 32.7815 7.8134Z" fill="#4BB1BC"/>
<path d="M32.7815 7.8134C30.9507 7.39553 29.0493 7.39553 27.2185 7.8134C25.3877 8.23127 23.6746 9.05627 22.2064 10.2271C20.7382 11.3979 19.5527 12.8845 18.7379 14.5765C17.9231 16.2684 17.5 18.1221 17.5 20C17.5 21.8779 17.9231 23.7316 18.7379 25.4235C19.5527 27.1155 20.7382 28.6021 22.2064 29.7729C23.6746 30.9437 25.3877 31.7687 27.2185 32.1866C29.0493 32.6045 30.9507 32.6045 32.7815 32.1866C34.6123 31.7687 36.3254 30.9437 37.7936 29.7729C39.2618 28.6021 40.4473 27.1155 41.2621 25.4235C42.0769 23.7316 42.5 21.8779 42.5 20C42.5 18.1221 42.0769 16.2684 41.2621 14.5765C40.4473 12.8845 39.2618 11.3979 37.7936 10.2271C36.3254 9.05627 34.6123 8.23127 32.7815 7.8134Z" fill="url(#paint12_radial_2_7436)"/>
<path d="M32.7815 7.8134C30.9507 7.39553 29.0493 7.39553 27.2185 7.8134C25.3877 8.23127 23.6746 9.05627 22.2064 10.2271C20.7382 11.3979 19.5527 12.8845 18.7379 14.5765C17.9231 16.2684 17.5 18.1221 17.5 20C17.5 21.8779 17.9231 23.7316 18.7379 25.4235C19.5527 27.1155 20.7382 28.6021 22.2064 29.7729C23.6746 30.9437 25.3877 31.7687 27.2185 32.1866C29.0493 32.6045 30.9507 32.6045 32.7815 32.1866C34.6123 31.7687 36.3254 30.9437 37.7936 29.7729C39.2618 28.6021 40.4473 27.1155 41.2621 25.4235C42.0769 23.7316 42.5 21.8779 42.5 20C42.5 18.1221 42.0769 16.2684 41.2621 14.5765C40.4473 12.8845 39.2618 11.3979 37.7936 10.2271C36.3254 9.05627 34.6123 8.23127 32.7815 7.8134Z" fill="url(#paint13_radial_2_7436)" fill-opacity="0.5"/>
<path d="M32.7815 7.8134C30.9507 7.39553 29.0493 7.39553 27.2185 7.8134C25.3877 8.23127 23.6746 9.05627 22.2064 10.2271C20.7382 11.3979 19.5527 12.8845 18.7379 14.5765C17.9231 16.2684 17.5 18.1221 17.5 20C17.5 21.8779 17.9231 23.7316 18.7379 25.4235C19.5527 27.1155 20.7382 28.6021 22.2064 29.7729C23.6746 30.9437 25.3877 31.7687 27.2185 32.1866C29.0493 32.6045 30.9507 32.6045 32.7815 32.1866C34.6123 31.7687 36.3254 30.9437 37.7936 29.7729C39.2618 28.6021 40.4473 27.1155 41.2621 25.4235C42.0769 23.7316 42.5 21.8779 42.5 20C42.5 18.1221 42.0769 16.2684 41.2621 14.5765C40.4473 12.8845 39.2618 11.3979 37.7936 10.2271C36.3254 9.05627 34.6123 8.23127 32.7815 7.8134Z" fill="url(#paint14_linear_2_7436)"/>
<path d="M32.7815 7.8134C30.9507 7.39553 29.0493 7.39553 27.2185 7.8134C25.3877 8.23127 23.6746 9.05627 22.2064 10.2271C20.7382 11.3979 19.5527 12.8845 18.7379 14.5765C17.9231 16.2684 17.5 18.1221 17.5 20C17.5 21.8779 17.9231 23.7316 18.7379 25.4235C19.5527 27.1155 20.7382 28.6021 22.2064 29.7729C23.6746 30.9437 25.3877 31.7687 27.2185 32.1866C29.0493 32.6045 30.9507 32.6045 32.7815 32.1866C34.6123 31.7687 36.3254 30.9437 37.7936 29.7729C39.2618 28.6021 40.4473 27.1155 41.2621 25.4235C42.0769 23.7316 42.5 21.8779 42.5 20C42.5 18.1221 42.0769 16.2684 41.2621 14.5765C40.4473 12.8845 39.2618 11.3979 37.7936 10.2271C36.3254 9.05627 34.6123 8.23127 32.7815 7.8134Z" stroke="black" stroke-width="3"/>
</g>
<defs>
<radialGradient id="paint0_radial_2_7436" cx="0" cy="0" r="1" gradientUnits="userSpaceOnUse" gradientTransform="translate(3 8.85714) rotate(101.976) scale(6.42557 3.80733)">
<stop stop-color="#FF8A1E"/>
<stop offset="1" stop-color="#EF4141"/>
</radialGradient>
<radialGradient id="paint1_radial_2_7436" cx="0" cy="0" r="1" gradientUnits="userSpaceOnUse" gradientTransform="translate(2.44709 6.14286) rotate(-133.85) scale(7.92381 12.8151)">
<stop stop-color="#FFA901"/>
<stop offset="1" stop-color="#FFC701" stop-opacity="0"/>
</radialGradient>
<linearGradient id="paint2_linear_2_7436" x1="4.15864" y1="5.58417e-07" x2="-6.77772" y2="8.56098" gradientUnits="userSpaceOnUse">
<stop stop-color="#FFDF35"/>
<stop offset="1" stop-color="#FF8A01" stop-opacity="0"/>
</linearGradient>
<radialGradient id="paint3_radial_2_7436" cx="0" cy="0" r="1" gradientUnits="userSpaceOnUse" gradientTransform="translate(5.37013 45.1151) rotate(151.671) scale(9.29548 7.45691)">
<stop stop-color="#FF8A1E"/>
<stop offset="1" stop-color="#EF4141"/>
</radialGradient>
<radialGradient id="paint4_radial_2_7436" cx="0" cy="0" r="1" gradientUnits="userSpaceOnUse" gradientTransform="translate(7.3072 41.6142) rotate(-98.5968) scale(13.6407 21.0921)">
<stop stop-color="#FFA901"/>
<stop offset="1" stop-color="#FFC701" stop-opacity="0"/>
</radialGradient>
<linearGradient id="paint5_linear_2_7436" x1="15.8812" y1="37.8812" x2="-7.75791" y2="39.0617" gradientUnits="userSpaceOnUse">
<stop stop-color="#FFDF35"/>
<stop offset="1" stop-color="#FF8A01" stop-opacity="0"/>
</linearGradient>
<radialGradient id="paint6_radial_2_7436" cx="0" cy="0" r="1" gradientUnits="userSpaceOnUse" gradientTransform="translate(26.5127 28.3033) rotate(63.0198) scale(20.4985 24.192)">
<stop stop-color="#FF8A1E"/>
<stop offset="1" stop-color="#EF4141"/>
</radialGradient>
<radialGradient id="paint7_radial_2_7436" cx="0" cy="0" r="1" gradientUnits="userSpaceOnUse" gradientTransform="translate(30.3691 20.4151) rotate(-23.4481) scale(41.7344 49.3202)">
<stop stop-color="#FFA901"/>
<stop offset="1" stop-color="#FFC701" stop-opacity="0"/>
</radialGradient>
<radialGradient id="paint8_radial_2_7436" cx="0" cy="0" r="1" gradientUnits="userSpaceOnUse" gradientTransform="translate(30.3692 18.7544) rotate(-10.5132) scale(45.7354 39.3672)">
<stop stop-color="#FFDF35"/>
<stop offset="1" stop-color="#FF8A01" stop-opacity="0"/>
</radialGradient>
<radialGradient id="paint9_radial_2_7436" cx="0" cy="0" r="1" gradientUnits="userSpaceOnUse" gradientTransform="translate(27.9358 25.6054) rotate(63.0198) scale(15.0724 17.7882)">
<stop stop-color="#FF8A1E"/>
<stop offset="1" stop-color="#EF4141"/>
</radialGradient>
<radialGradient id="paint10_radial_2_7436" cx="0" cy="0" r="1" gradientUnits="userSpaceOnUse" gradientTransform="translate(30.7714 19.8052) rotate(-23.4481) scale(30.687 36.2648)">
<stop stop-color="#FFA901"/>
<stop offset="1" stop-color="#FFC701" stop-opacity="0"/>
</radialGradient>
<radialGradient id="paint11_radial_2_7436" cx="0" cy="0" r="1" gradientUnits="userSpaceOnUse" gradientTransform="translate(30.7714 18.5841) rotate(-11.4208) scale(24.0688 20.7175)">
<stop stop-color="#FFDF35"/>
<stop offset="1" stop-color="#FF8A01" stop-opacity="0"/>
</radialGradient>
<radialGradient id="paint12_radial_2_7436" cx="0" cy="0" r="1" gradientUnits="userSpaceOnUse" gradientTransform="translate(27.2 26.6667) rotate(63.0198) scale(16.4579 19.4233)">
<stop stop-color="#FF8A1E"/>
<stop offset="1" stop-color="#EF4141"/>
</radialGradient>
<radialGradient id="paint13_radial_2_7436" cx="0" cy="0" r="1" gradientUnits="userSpaceOnUse" gradientTransform="translate(30.2963 20.3333) rotate(-23.4481) scale(33.5078 39.5983)">
<stop stop-color="#FFA901"/>
<stop offset="1" stop-color="#FFC701" stop-opacity="0"/>
</radialGradient>
<linearGradient id="paint14_linear_2_7436" x1="26.5" y1="14.5" x2="34.6662" y2="25.7424" gradientUnits="userSpaceOnUse">
<stop stop-color="#FFDF35"/>
<stop offset="1" stop-color="#FFDF35" stop-opacity="0"/>
</linearGradient>
<clipPath id="clip0_2_7436">
<rect width="50" height="50" fill="white" transform="matrix(-1 0 0 1 50 0)"/>
</clipPath>
</defs>
</svg>
