<svg width="37" height="38" viewBox="0 0 37 38" fill="none" xmlns="http://www.w3.org/2000/svg">
<path d="M12.8284 26.8284L10.7071 24.7071L28.9372 6.47701L29.6885 4.31149L34.0416 1.37258L36.163 3.4939L33.224 7.84703L31.0585 8.59833L12.8284 26.8284Z" fill="black"/>
<path fill-rule="evenodd" clip-rule="evenodd" d="M18.8385 13.8385L17.0316 14.0238C15.5501 14.1758 14.1662 14.8338 13.1131 15.8869L5.33274 23.6673C2.79433 26.2057 2.79433 30.3212 5.33274 32.8597C7.87115 35.3981 11.9867 35.3981 14.5251 32.8596L22.3055 25.0792C23.3586 24.0262 24.0166 22.6423 24.1685 21.1608L24.3539 19.3539L18.8385 13.8385Z" fill="#4633B9"/>
<path fill-rule="evenodd" clip-rule="evenodd" d="M18.8385 13.8385L17.0316 14.0238C15.5501 14.1758 14.1662 14.8338 13.1131 15.8869L5.33274 23.6673C2.79433 26.2057 2.79433 30.3212 5.33274 32.8597C7.87115 35.3981 11.9867 35.3981 14.5251 32.8596L22.3055 25.0792C23.3586 24.0262 24.0166 22.6423 24.1685 21.1608L24.3539 19.3539L18.8385 13.8385Z" fill="#1767F9"/>
<path fill-rule="evenodd" clip-rule="evenodd" d="M18.8385 13.8385L17.0316 14.0238C15.5501 14.1758 14.1662 14.8338 13.1131 15.8869L5.33274 23.6673C2.79433 26.2057 2.79433 30.3212 5.33274 32.8597C7.87115 35.3981 11.9867 35.3981 14.5251 32.8596L22.3055 25.0792C23.3586 24.0262 24.0166 22.6423 24.1685 21.1608L24.3539 19.3539L18.8385 13.8385Z" fill="#4BB1BC"/>
<path fill-rule="evenodd" clip-rule="evenodd" d="M18.8385 13.8385L17.0316 14.0238C15.5501 14.1758 14.1662 14.8338 13.1131 15.8869L5.33274 23.6673C2.79433 26.2057 2.79433 30.3212 5.33274 32.8597C7.87115 35.3981 11.9867 35.3981 14.5251 32.8596L22.3055 25.0792C23.3586 24.0262 24.0166 22.6423 24.1685 21.1608L24.3539 19.3539L18.8385 13.8385Z" fill="#FFA300"/>
<path fill-rule="evenodd" clip-rule="evenodd" d="M18.8385 13.8385L17.0316 14.0238C15.5501 14.1758 14.1662 14.8338 13.1131 15.8869L5.33274 23.6673C2.79433 26.2057 2.79433 30.3212 5.33274 32.8597C7.87115 35.3981 11.9867 35.3981 14.5251 32.8596L22.3055 25.0792C23.3586 24.0262 24.0166 22.6423 24.1685 21.1608L24.3539 19.3539L18.8385 13.8385Z" fill="url(#paint0_linear_2_4526)"/>
<path d="M22.6431 12.6431C21.333 11.333 18.9321 12.171 18.4498 14.1067L23.5502 19.207C25.4859 18.7247 26.3239 16.3239 25.0138 15.0138L22.6431 12.6431Z" fill="#FFA300"/>
<rect x="16" y="19" width="1" height="13" rx="0.5" transform="rotate(45 16 19)" fill="black"/>
<rect x="18" y="21" width="1" height="13" rx="0.5" transform="rotate(45 18 21)" fill="black"/>
<defs>
<linearGradient id="paint0_linear_2_4526" x1="18.0607" y1="29.3241" x2="8.86827" y2="20.1317" gradientUnits="userSpaceOnUse">
<stop stop-color="#FFCC00"/>
<stop offset="1" stop-color="#FFA300"/>
</linearGradient>
</defs>
</svg>
